<?xml version="1.0" encoding="utf-8"?>
<!-- Generator: Adobe Illustrator 18.1.1, SVG Export Plug-In . SVG Version: 6.00 Build 0)  -->
<!DOCTYPE svg PUBLIC "-//W3C//DTD SVG 1.1//EN" "http://www.w3.org/Graphics/SVG/1.1/DTD/svg11.dtd">
<svg version="1.1" id="Layer_1" xmlns="http://www.w3.org/2000/svg" xmlns:xlink="http://www.w3.org/1999/xlink" x="0px" y="0px"
	 viewBox="0 0 612 792" enable-background="new 0 0 612 792" xml:space="preserve">
<path fill="#F07D00" d="M356.5,171.1v87.2l-26,113.2H560v62.7L433,622.4H324.4L255.5,572H205V383.8l76.5-107.1L332,169.6h24.5
	 M356.5,120.6h-26c-19.9,0-36.7,16.8-45.9,33.7l-49,99.4l-73.4,97.9c-6.1,9.2-10.7,21.4-10.7,32.1v200.4c0,27.5,22.9,38.3,50.5,38.3
	h30.6c0,0,62.7,50.5,70.4,50.5h127c16.8,0,33.7-15.3,42.8-29.1L596.7,471c9.2-9.2,15.3-22.9,15.3-36.7v-50.5
	c0-27.5-23-62.7-50.5-62.7H393.2l15.3-62.7v-75C408.5,155.8,385.6,120.6,356.5,120.6z M102.5,321H0v299.9h102.5V321z"/>
<path fill="#F07D00" d="M153,321h-50.5v299.9H153V321"/>
</svg>
