<?xml version="1.0" encoding="utf-8"?>
<!-- Generator: Adobe Illustrator 18.1.0, SVG Export Plug-In . SVG Version: 6.00 Build 0)  -->
<!DOCTYPE svg PUBLIC "-//W3C//DTD SVG 1.1//EN" "http://www.w3.org/Graphics/SVG/1.1/DTD/svg11.dtd">
<svg version="1.1" id="Layer_1" xmlns="http://www.w3.org/2000/svg" xmlns:xlink="http://www.w3.org/1999/xlink" x="0px" y="0px"
	 viewBox="0 0 20 20" enable-background="new 0 0 20 20" xml:space="preserve">
<path fill-rule="evenodd" clip-rule="evenodd" fill="#4DC66D" d="M11,13.9L11,13.9c-0.1,0.1-0.2,0.2-0.3,0.3c-0.6,0.6-1.5,0.6-2.1,0
	L4.6,10C4,9.4,4,8.5,4.6,7.9c0.6-0.6,1.5-0.6,2.1,0L9.7,11l7.7-7.8C15.5,1.3,12.9,0,10,0C4.5,0,0,4.5,0,10c0,5.5,4.5,10,10,10
	s10-4.5,10-10c0-1.5-0.4-3-1-4.3L11,13.9z"/>
</svg>
