<?xml version="1.0" encoding="utf-8"?>
<!-- Generator: Adobe Illustrator 18.0.0, SVG Export Plug-In . SVG Version: 6.00 Build 0)  -->
<!DOCTYPE svg PUBLIC "-//W3C//DTD SVG 1.1//EN" "http://www.w3.org/Graphics/SVG/1.1/DTD/svg11.dtd">
<svg version="1.1" id="Layer_1" xmlns="http://www.w3.org/2000/svg" xmlns:xlink="http://www.w3.org/1999/xlink" x="0px" y="0px"
	 viewBox="0 0 20 17" enable-background="new 0 0 20 17" xml:space="preserve">
<g id="mobile_menu_icon">
	<g>
		<path fill="#333333" d="M19,0H1C0.4,0,0,0.4,0,1v1c0,0.6,0.4,1,1,1h18c0.6,0,1-0.4,1-1V1C20,0.4,19.6,0,19,0z M19,7H1
			C0.4,7,0,7.4,0,8v1c0,0.6,0.4,1,1,1h18c0.6,0,1-0.4,1-1V8C20,7.4,19.6,7,19,7z M19,14H1c-0.6,0-1,0.4-1,1v1c0,0.6,0.4,1,1,1h18
			c0.6,0,1-0.4,1-1v-1C20,14.4,19.6,14,19,14z"/>
	</g>
</g>
</svg>
