<?xml version="1.0" encoding="UTF-8" standalone="no"?>
<svg width="140px" height="140px" viewBox="0 0 140 140" version="1.1" xmlns="http://www.w3.org/2000/svg" xmlns:xlink="http://www.w3.org/1999/xlink">
    <!-- Generator: Sketch 40 (33762) - http://www.bohemiancoding.com/sketch -->
    <title>Artboard</title>
    <desc>Created with Sketch.</desc>
    <defs></defs>
    <g id="Page-1" stroke="none" stroke-width="1" fill="none" fill-rule="evenodd">
        <g id="Artboard">
            <path d="M66.1886792,21 C62.9575472,21 61,22.9547066 61,26.2062404 L61,30.4658916 C61,32.6761773 61.9433962,34.2522482 63.6509434,35.0473831 L63.6226415,35.9561087 L63.5707547,38.114332 C63.5707547,38.900001 64.0896226,39.2218413 64.7688679,38.8384727 L66.6556604,37.7735599 L70.4528302,35.6390013 L72.8113208,35.6390013 C76.0424528,35.6390013 78,33.6842947 78,30.432761 L78,26.1731098 C77.9716981,22.9547066 76.0283019,21 72.7924528,21 L66.1886792,21 Z M76.4528302,30.513221 C76.4528302,32.8039668 75.3349057,33.925675 73.0566038,33.925675 L69.9575472,33.925675 L65.3490566,36.5193293 L65.4150943,33.8688796 C63.4716981,33.5328405 62.504717,32.5673195 62.504717,30.517954 L62.504717,25.9364625 C62.504717,23.6457167 63.6226415,22.5240085 65.9009434,22.5240085 L73.0613208,22.5240085 C75.3396226,22.5240085 76.4575472,23.6457167 76.4575472,25.9364625 L76.4575472,30.513221 L76.4528302,30.513221 Z" id="Shape" fill="#333333"></path>
            <path d="M66.1886792,61 C62.9575472,61 61,62.9547066 61,66.2062404 L61,70.4658916 C61,72.6761773 61.9433962,74.2522482 63.6509434,75.0473831 L63.6226415,75.9561087 L63.5707547,78.114332 C63.5707547,78.900001 64.0896226,79.2218413 64.7688679,78.8384727 L66.6556604,77.7735599 L70.4528302,75.6390013 L72.8113208,75.6390013 C76.0424528,75.6390013 78,73.6842947 78,70.432761 L78,66.1731098 C77.9716981,62.9547066 76.0283019,61 72.7924528,61 L66.1886792,61 Z M76.4528302,70.513221 C76.4528302,72.8039668 75.3349057,73.925675 73.0566038,73.925675 L69.9575472,73.925675 L65.3490566,76.5193293 L65.4150943,73.8688796 C63.4716981,73.5328405 62.504717,72.5673195 62.504717,70.517954 L62.504717,65.9364625 C62.504717,63.6457167 63.6226415,62.5240085 65.9009434,62.5240085 L73.0613208,62.5240085 C75.3396226,62.5240085 76.4575472,63.6457167 76.4575472,65.9364625 L76.4575472,70.513221 L76.4528302,70.513221 Z" id="Shape-Copy" fill="#EA7D24"></path>
            <path d="M116.798955,34.7290797 C116.464696,34.1390592 116.292337,33.471167 116.299342,32.7930782 L116.299342,28.3881544 C116.298576,25.2598036 114.20745,22.5176515 111.190796,21.6891728 C111.100003,20.7315324 110.295835,20 109.3339,20 C108.371965,20 107.567797,20.7315324 107.477004,21.6891728 C104.456203,22.5132701 102.360494,25.25696 102.360131,28.3881544 L102.360131,32.6057232 C102.363749,33.3317557 102.18631,34.0472366 101.843864,34.6874453 C101.723481,34.9244983 101.573814,35.1455009 101.398376,35.3452695 C101.00665,35.7442304 100.891969,36.3390045 101.107274,36.8550104 C101.322579,37.3710164 101.825993,37.7078878 102.385112,37.7101057 L104.774929,37.7101057 C104.774929,38.9747794 105.800149,40 107.064823,40 C108.329497,40 109.354717,38.9747794 109.354717,37.7101057 L116.282688,37.7101057 C116.854451,37.7068285 117.365933,37.3539052 117.571926,36.8205291 C117.77792,36.287153 117.636435,35.6820493 117.2153,35.2953081 C117.051899,35.1259676 116.911877,34.9355372 116.798955,34.7290797 Z M102.389275,36.3236788 C103.282386,35.2924916 103.766727,33.9698117 103.750722,32.6057232 L103.750722,28.3881544 C103.749617,26.9133074 104.334723,25.4984882 105.377207,24.4552232 C106.419691,23.4119583 107.834072,22.8257926 109.30892,22.825793 L109.358881,22.825793 C112.424382,22.8349712 114.904602,25.322639 114.904588,28.3881544 L114.904588,32.7930782 C114.874129,34.1048332 115.363512,35.3754337 116.266035,36.3278423 L102.389275,36.3278423 L102.389275,36.3236788 Z" id="Shape" fill="#333333"></path>
            <path d="M116.798955,74.7290797 C116.464696,74.1390592 116.292337,73.471167 116.299342,72.7930782 L116.299342,68.3881544 C116.298576,65.2598036 114.20745,62.5176515 111.190796,61.6891728 C111.100003,60.7315324 110.295835,60 109.3339,60 C108.371965,60 107.567797,60.7315324 107.477004,61.6891728 C104.456203,62.5132701 102.360494,65.25696 102.360131,68.3881544 L102.360131,72.6057232 C102.363749,73.3317557 102.18631,74.0472366 101.843864,74.6874453 C101.723481,74.9244983 101.573814,75.1455009 101.398376,75.3452695 C101.00665,75.7442304 100.891969,76.3390045 101.107274,76.8550104 C101.322579,77.3710164 101.825993,77.7078878 102.385112,77.7101057 L104.774929,77.7101057 C104.774929,78.9747794 105.800149,80 107.064823,80 C108.329497,80 109.354717,78.9747794 109.354717,77.7101057 L116.282688,77.7101057 C116.854451,77.7068285 117.365933,77.3539052 117.571926,76.8205291 C117.77792,76.287153 117.636435,75.6820493 117.2153,75.2953081 C117.051899,75.1259676 116.911877,74.9355372 116.798955,74.7290797 Z M102.389275,76.3236788 C103.282386,75.2924916 103.766727,73.9698117 103.750722,72.6057232 L103.750722,68.3881544 C103.749617,66.9133074 104.334723,65.4984882 105.377207,64.4552232 C106.419691,63.4119583 107.834072,62.8257926 109.30892,62.825793 L109.358881,62.825793 C112.424382,62.8349712 114.904602,65.322639 114.904588,68.3881544 L114.904588,72.7930782 C114.874129,74.1048332 115.363512,75.3754337 116.266035,76.3278423 L102.389275,76.3278423 L102.389275,76.3236788 Z" id="Shape-Copy-2" fill="#EA7D24"></path>
            <path d="M36.6093287,35.1259972 L34.3653762,32.5529844 C35.4325953,31.30743 36.0190052,29.72117 36.0186062,28.0809376 C36.0475354,25.2395936 34.3582193,22.6618996 31.7414177,21.5544603 C29.124616,20.447021 26.098128,21.0289707 24.0786363,23.0279019 C22.0591447,25.0268332 21.4462559,28.0472078 22.52686,30.6752046 C23.6074641,33.3032015 26.1677367,35.0188062 29.0092279,35.0189535 C30.0606823,35.0178618 31.0984822,34.7807665 32.0460966,34.3251519 L34.4605261,37.1003582 C35.0137703,37.6870051 35.9356073,37.7205585 36.5300371,37.1756853 C36.8150977,36.9159964 36.984017,36.5527716 36.9989232,36.1674463 C37.0138294,35.7821209 36.8734754,35.406932 36.6093287,35.1259972 L36.6093287,35.1259972 Z M23.668938,28.0849022 C23.6480472,25.9155781 24.9387362,23.9482154 26.9369653,23.1035354 C28.9351944,22.2588555 31.245666,22.7039563 32.7870846,24.2305317 C34.3285033,25.757107 34.7959394,28.0631637 33.9706338,30.0694724 C33.1453283,32.075781 31.1905464,33.3854457 29.0211217,33.3855463 C26.0798584,33.3987168 23.6842277,31.0261552 23.668938,28.0849022 L23.668938,28.0849022 Z" id="Shape" fill="#333333"></path>
            <path d="M36.6093287,75.1259972 L34.3653762,72.5529844 C35.4325953,71.30743 36.0190052,69.72117 36.0186062,68.0809376 C36.0475354,65.2395936 34.3582193,62.6618996 31.7414177,61.5544603 C29.124616,60.447021 26.098128,61.0289707 24.0786363,63.0279019 C22.0591447,65.0268332 21.4462559,68.0472078 22.52686,70.6752046 C23.6074641,73.3032015 26.1677367,75.0188062 29.0092279,75.0189535 C30.0606823,75.0178618 31.0984822,74.7807665 32.0460966,74.3251519 L34.4605261,77.1003582 C35.0137703,77.6870051 35.9356073,77.7205585 36.5300371,77.1756853 C36.8150977,76.9159964 36.984017,76.5527716 36.9989232,76.1674463 C37.0138294,75.7821209 36.8734754,75.406932 36.6093287,75.1259972 L36.6093287,75.1259972 Z M23.668938,68.0849022 C23.6480472,65.9155781 24.9387362,63.9482154 26.9369653,63.1035354 C28.9351944,62.2588555 31.245666,62.7039563 32.7870846,64.2305317 C34.3285033,65.757107 34.7959394,68.0631637 33.9706338,70.0694724 C33.1453283,72.075781 31.1905464,73.3854457 29.0211217,73.3855463 C26.0798584,73.3987168 23.6842277,71.0261552 23.668938,68.0849022 L23.668938,68.0849022 Z" id="Shape-Copy-3" fill="#EA7D24"></path>
            <path d="M66.1886792,101 C62.9575472,101 61,102.954707 61,106.20624 L61,110.465892 C61,112.676177 61.9433962,114.252248 63.6509434,115.047383 L63.6226415,115.956109 L63.5707547,118.114332 C63.5707547,118.900001 64.0896226,119.221841 64.7688679,118.838473 L66.6556604,117.77356 L70.4528302,115.639001 L72.8113208,115.639001 C76.0424528,115.639001 78,113.684295 78,110.432761 L78,106.17311 C77.9716981,102.954707 76.0283019,101 72.7924528,101 L66.1886792,101 Z M76.4528302,110.513221 C76.4528302,112.803967 75.3349057,113.925675 73.0566038,113.925675 L69.9575472,113.925675 L65.3490566,116.519329 L65.4150943,113.86888 C63.4716981,113.53284 62.504717,112.56732 62.504717,110.517954 L62.504717,105.936462 C62.504717,103.645717 63.6226415,102.524009 65.9009434,102.524009 L73.0613208,102.524009 C75.3396226,102.524009 76.4575472,103.645717 76.4575472,105.936462 L76.4575472,110.513221 L76.4528302,110.513221 Z" id="Shape-Copy" fill="#FFFFFF"></path>
            <path d="M116.798955,114.72908 C116.464696,114.139059 116.292337,113.471167 116.299342,112.793078 L116.299342,108.388154 C116.298576,105.259804 114.20745,102.517651 111.190796,101.689173 C111.100003,100.731532 110.295835,100 109.3339,100 C108.371965,100 107.567797,100.731532 107.477004,101.689173 C104.456203,102.51327 102.360494,105.25696 102.360131,108.388154 L102.360131,112.605723 C102.363749,113.331756 102.18631,114.047237 101.843864,114.687445 C101.723481,114.924498 101.573814,115.145501 101.398376,115.345269 C101.00665,115.74423 100.891969,116.339005 101.107274,116.85501 C101.322579,117.371016 101.825993,117.707888 102.385112,117.710106 L104.774929,117.710106 C104.774929,118.974779 105.800149,120 107.064823,120 C108.329497,120 109.354717,118.974779 109.354717,117.710106 L116.282688,117.710106 C116.854451,117.706829 117.365933,117.353905 117.571926,116.820529 C117.77792,116.287153 117.636435,115.682049 117.2153,115.295308 C117.051899,115.125968 116.911877,114.935537 116.798955,114.72908 Z M102.389275,116.323679 C103.282386,115.292492 103.766727,113.969812 103.750722,112.605723 L103.750722,108.388154 C103.749617,106.913307 104.334723,105.498488 105.377207,104.455223 C106.419691,103.411958 107.834072,102.825793 109.30892,102.825793 L109.358881,102.825793 C112.424382,102.834971 114.904602,105.322639 114.904588,108.388154 L114.904588,112.793078 C114.874129,114.104833 115.363512,115.375434 116.266035,116.327842 L102.389275,116.327842 L102.389275,116.323679 Z" id="Shape-Copy-2" fill="#FFFFFF"></path>
            <path d="M36.6093287,115.125997 L34.3653762,112.552984 C35.4325953,111.30743 36.0190052,109.72117 36.0186062,108.080938 C36.0475354,105.239594 34.3582193,102.6619 31.7414177,101.55446 C29.124616,100.447021 26.098128,101.028971 24.0786363,103.027902 C22.0591447,105.026833 21.4462559,108.047208 22.52686,110.675205 C23.6074641,113.303201 26.1677367,115.018806 29.0092279,115.018953 C30.0606823,115.017862 31.0984822,114.780766 32.0460966,114.325152 L34.4605261,117.100358 C35.0137703,117.687005 35.9356073,117.720559 36.5300371,117.175685 C36.8150977,116.915996 36.984017,116.552772 36.9989232,116.167446 C37.0138294,115.782121 36.8734754,115.406932 36.6093287,115.125997 L36.6093287,115.125997 Z M23.668938,108.084902 C23.6480472,105.915578 24.9387362,103.948215 26.9369653,103.103535 C28.9351944,102.258856 31.245666,102.703956 32.7870846,104.230532 C34.3285033,105.757107 34.7959394,108.063164 33.9706338,110.069472 C33.1453283,112.075781 31.1905464,113.385446 29.0211217,113.385546 C26.0798584,113.398717 23.6842277,111.026155 23.668938,108.084902 L23.668938,108.084902 Z" id="Shape-Copy-3" fill="#FFFFFF"></path>
        </g>
    </g>
</svg>