<?xml version="1.0" encoding="UTF-8" standalone="no"?>
<svg width="24px" height="24px" viewBox="0 0 24 24" version="1.1" xmlns="http://www.w3.org/2000/svg" xmlns:xlink="http://www.w3.org/1999/xlink">
    <!-- Generator: Sketch 3.6.1 (26313) - http://www.bohemiancoding.com/sketch -->
    <title>icn-nav-study-24x24-s</title>
    <desc>Created with Sketch.</desc>
    <defs></defs>
    <g id="Page-1" stroke="none" stroke-width="1" fill="none" fill-rule="evenodd">
        <g id="assets" transform="translate(-708.000000, -167.000000)" fill="#F07D00">
            <g id="icn-nav-study-24x24-s" transform="translate(708.000000, 167.000000)">
                <path d="M2,21 L2,24 L22,24 L22,0 L2,0 L2,3 L3.99408095,3 C5.10191945,3 6,3.88772964 6,5 C6,6.1045695 5.11344516,7 3.99408095,7 L2,7 L2,10 L3.99408095,10 C5.10191945,10 6,10.8877296 6,12 C6,13.1045695 5.11344516,14 3.99408095,14 L2,14 L2,17 L3.99408095,17 C5.10191945,17 6,17.8877296 6,19 C6,20.1045695 5.11344516,21 3.99408095,21 L2,21 Z M9,10 C9,9.44771525 9.43788135,9 10.0029293,9 L14.9970707,9 C15.5509732,9 16,9.44386482 16,10 C16,10.5522847 15.5621186,11 14.9970707,11 L10.0029293,11 C9.44902676,11 9,10.5561352 9,10 Z M9,6 C9,5.44771525 9.4463114,5 9.99754465,5 L17.0024554,5 C17.553384,5 18,5.44386482 18,6 C18,6.55228475 17.5536886,7 17.0024554,7 L9.99754465,7 C9.44661595,7 9,6.55613518 9,6 Z" id="Rectangle-85"></path>
                <rect id="Rectangle-86" x="0" y="4" width="4" height="2" rx="100"></rect>
                <rect id="Rectangle-86" x="0" y="11" width="4" height="2" rx="100"></rect>
                <rect id="Rectangle-86" x="0" y="18" width="4" height="2" rx="100"></rect>
            </g>
        </g>
    </g>
</svg>