<?xml version="1.0" encoding="UTF-8" standalone="no"?>
<svg width="24px" height="24px" viewBox="0 0 24 24" version="1.1" xmlns="http://www.w3.org/2000/svg" xmlns:xlink="http://www.w3.org/1999/xlink">
    <!-- Generator: Sketch 3.6.1 (26313) - http://www.bohemiancoding.com/sketch -->
    <title>icn-nav-home-24x24-s</title>
    <desc>Created with Sketch.</desc>
    <defs></defs>
    <g id="Page-1" stroke="none" stroke-width="1" fill="none" fill-rule="evenodd">
        <g id="assets" transform="translate(-708.000000, -80.000000)">
            <g id="icn-nav-home-24x24-s" transform="translate(709.000000, 82.000000)">
                <g id="Group">
                    <path d="M17.9106368,19 L4.08936324,19 C2.93994211,19 2,17.9234031 2,16.6082599 L2,6.21475771 C2,6.08502203 2.0922576,5.97935022 2.20513748,5.97935022 L11,0 L20,5.97935022 L20,16.6082599 C20,17.9234031 19.0600579,19 17.9106368,19 L17.9106368,19 Z" id="Stroke-1" stroke="#F07D00" stroke-width="2"></path>
                    <path d="M11,0 L22,7" id="Stroke-3" stroke="#F07D00" stroke-width="2" stroke-linecap="round" stroke-linejoin="round"></path>
                    <path d="M11,0 L0,7" id="Stroke-5" stroke="#F07D00" stroke-width="2" stroke-linecap="round" stroke-linejoin="round"></path>
                    <path d="M13.1601455,11.5754249 C12.6654478,11.6544529 12.4507279,12.2708712 12.0970717,12.5975203 C11.7223645,12.9842306 10.9897908,12.9842306 10.5361425,12.7439855 C9.65515953,12.2329378 9.63305601,11.2034665 9.64463405,10.2488083 C9.64463405,9.41848755 10.0014479,8.55444816 10.7108655,8.18248974 C11.6771049,7.77259788 12.3128441,8.7051282 12.9149017,9.28361311 C13.5169594,9.49751554 14.3126859,9.55336199 14.857906,9.12134229 C15.032629,8.76097465 14.9031656,8.30577341 14.738968,7.98650032 C14.4716207,7.38483386 13.8590376,6.70519312 13.2790835,6.4765388 C12.0633901,5.84115373 10.3319481,5.84115373 9.10888694,6.4765388 C8.18369695,6.97599571 7.43007234,7.98650032 7.19535406,8.99700492 C6.75328376,10.7714468 7.03220907,12.7323947 8.33315881,13.9957889 C9.56990311,15.1527587 11.6550014,15.2317867 13.1601455,14.6301203 C14.107439,14.1643819 14.9442149,13.1306958 15,12.0190354 C14.738968,11.2709037 13.7843067,11.6091435 13.1601455,11.5754249" id="Fill-7" fill="#F07D00"></path>
                </g>
            </g>
        </g>
    </g>
</svg>