<?xml version="1.0" encoding="UTF-8" standalone="no"?>
<svg width="24px" height="24px" viewBox="0 0 24 24" version="1.1" xmlns="http://www.w3.org/2000/svg" xmlns:xlink="http://www.w3.org/1999/xlink">
    <!-- Generator: Sketch 3.6.1 (26313) - http://www.bohemiancoding.com/sketch -->
    <title>icn-nav-internships-24x24-n</title>
    <desc>Created with Sketch.</desc>
    <defs></defs>
    <g id="Page-1" stroke="none" stroke-width="1" fill="none" fill-rule="evenodd">
        <g id="assets" transform="translate(-458.000000, -299.000000)" fill="#CCCCCC">
            <g id="icn-nav-internships-24x24-n" transform="translate(458.000000, 299.000000)">
                <path d="M10,2 L15,2 L15,4 L17,4 L17,2 C17,1.016 15.9218487,0 15,0 L8.76470588,0 C7.84285714,0 7,0.928 7,2 L7,4 L9,4 L9,2 L10,2 Z" id="Shape"></path>
                <path d="M22.8075,4 L1.1925,4 C0.5325,4 0,4.94285714 0,5.61071429 L0,12.2814286 C0.21,13.8135714 1.4925,15 3.045,15 L4.5,15 L4.5,14.7171429 C4.5,14.0571429 4.8525,13.1221429 5.49,13.1221429 C6.135,13.1221429 6.75,13.625 6.75,14.2771429 L6.75,15 L17.115,15 L17.4525,14.7171429 C17.4525,14.0571429 17.955,13.1221429 18.5925,13.1221429 C19.2375,13.1221429 19.5,13.625 19.5,14.2771429 L19.5,15 L20.9325,15 C22.485,15 23.79,13.8135714 24,12.2814286 L24,5.21785714 C24,4.54214286 23.4675,4 22.8075,4 L22.8075,4 Z" id="Shape"></path>
                <path d="M19.0769231,16.2 L19.0769231,16.2 C19.0875,16.9930556 19.05,17.5416667 18.4615385,17.4 C17.7675,17.5416667 17.25,17.2083333 17.2307692,16.8 L17.2307692,16.2 L13.5384615,16.2 L13.5384615,19.8 L11.0769231,19.8 L11.0769231,16.2 L7.38461538,16.2 L7.38461538,16.2 C7.0875,16.9930556 7.2225,17.5416667 6.76923077,17.4 C5.94,17.5416667 5.25,17.2083333 5.53846154,16.8 L5.53846154,16.2 L3.07692308,16.2 C2.055,16.1388889 0.78,15.7013889 -8.52651283e-14,15 L-8.52651283e-14,19.8 C-8.52651283e-14,20.5138889 0.5325,21 1.23076923,21 L22.7692308,21 C23.4675,21 24,20.5138889 24,19.8 L24,15 C23.22,15.7013889 22.14,16.1388889 20.9230769,16.2 L19.0769231,16.2 L19.0769231,16.2 Z" id="Shape"></path>
            </g>
        </g>
    </g>
</svg>