<?xml version="1.0" encoding="UTF-8" standalone="no"?>
<svg width="24px" height="24px" viewBox="0 0 24 24" version="1.1" xmlns="http://www.w3.org/2000/svg" xmlns:xlink="http://www.w3.org/1999/xlink">
    <!-- Generator: Sketch 3.6.1 (26313) - http://www.bohemiancoding.com/sketch -->
    <title>icn-nav-tutors-24x24-s</title>
    <desc>Created with Sketch.</desc>
    <defs></defs>
    <g id="Page-1" stroke="none" stroke-width="1" fill="none" fill-rule="evenodd">
        <g id="assets" transform="translate(-708.000000, -212.000000)" fill="#F07D00">
            <g id="icn-nav-tutors-24x24-s" transform="translate(708.000000, 213.000000)">
                <path d="M21,0 L3,0 C1.32,0 1.24344979e-13,1.22702036 1.24344979e-13,3 L1.24344979e-13,14 C1.24344979e-13,15.6995682 1.18909091,16.8846391 2,17 C2.80363636,16.3917335 2.97818182,15.8254164 3,15 L4,15 C2.68363636,15.3010487 2.18181818,14.8396052 2,14 L2,3 C2.18181818,2.5694016 2.68363636,2.0974707 4,2 L20,2 C21.3163636,2.0974707 21.8181818,2.5694016 22,3 L22,14 C21.8181818,14.8396052 21.3163636,15.3010487 20,15 L21,15 C21.2618182,15.8568785 21.3818182,16.4231956 22,17 C22.8872727,16.8007403 24,15.6471314 24,14 L24,3 C24,1.22702036 22.68,0 21,0 L21,0 Z" id="Shape"></path>
                <path d="M8.5,8 C8.5,10.3878327 10.0600579,13 11.5,13 C13.9298119,13 15.5,10.3878327 15.5,8 C15.5,5.42585551 13.9298119,4 11.5,4 C10.0600579,4 8.5,5.42585551 8.5,8 L8.5,8 Z M4,19 C4,21.8831169 7.58110883,22 12,22 C16.4188912,22 20,21.8831169 20,19 C20,16.4948052 19.4524298,13.7831169 15,13 C14.1190965,13.9584416 13.100616,14.5779221 12,15 C10.899384,14.5779221 9.9028063,13.9818182 9,13 C5.0403833,13.8766234 4,16.5415584 4,19 L4,19 Z" id="Shape"></path>
            </g>
        </g>
    </g>
</svg>