<?xml version="1.0" encoding="UTF-8" standalone="no"?>
<svg width="24px" height="24px" viewBox="0 0 24 24" version="1.1" xmlns="http://www.w3.org/2000/svg" xmlns:xlink="http://www.w3.org/1999/xlink">
    <!-- Generator: Sketch 3.6.1 (26313) - http://www.bohemiancoding.com/sketch -->
    <title>icn-nav-testprep-24x24-s</title>
    <desc>Created with Sketch.</desc>
    <defs></defs>
    <g id="Page-1" stroke="none" stroke-width="1" fill="none" fill-rule="evenodd">
        <g id="assets" transform="translate(-708.000000, -253.000000)" fill="#F07D00">
            <g id="icn-nav-testprep-24x24-s" transform="translate(709.000000, 253.000000)">
                <rect id="Rectangle-7-Copy-3" x="1" y="20" width="6" height="4"></rect>
                <rect id="Rectangle-7-Copy-4" x="8" y="17" width="6" height="7"></rect>
                <rect id="Rectangle-7-Copy-5" x="15" y="12" width="6" height="12"></rect>
                <polygon id="--" points="16.2727942 -0.664956857 20.0683978 7.39216262 12.4771906 7.39216262 "></polygon>
                <path d="M0.823223305,16.2374369 C0.877959149,16.2452563 0.959279066,16.254168 1.06598187,16.2621458 C3.34110644,16.4322486 6.3705539,15.7552771 9.69337525,13.5400629 C10.2759042,13.1517103 10.8210703,12.7438162 11.329958,12.3184772 C12.8454871,11.0517663 13.9825311,9.68536145 14.7933537,8.30942007 C15.293937,7.45994549 15.5782453,6.77621015 15.7019049,6.34340141 L13.2980951,5.65659859 C13.2303485,5.89371173 13.027169,6.38233967 12.6395076,7.0401893 C11.9699225,8.17645495 11.0164514,9.32225715 9.72668264,10.4002728 C9.28683986,10.7679026 8.8139396,11.1217272 8.30662475,11.4599371 C6.68316123,12.5422461 5.10101012,13.208415 3.60471324,13.5427831 C2.6208825,13.7626335 1.81999348,13.8115428 1.25237751,13.7691042 C1.20234203,13.7653632 1.17672835,13.7625562 1.1767767,13.7625631 L0.823223305,16.2374369 L0.823223305,16.2374369 Z" id="Path-1078"></path>
            </g>
        </g>
    </g>
</svg>